<svg >
						<path d="M 2955.1943359375 356.7280883789062 C 2955.188720703125 356.7561340332031 2955.19189453125 356.7854614257812 2955.202880859375 356.8118286132812 C 2955.6826171875 357.9237976074219 2956.36767578125 358.6815185546875 2957.238525390625 359.367431640625 C 2957.708984375 359.7379760742188 2957.881591796875 360.4176025390625 2957.46240234375 360.8331298828125 C 2957.024658203125 361.2377319335938 2956.521484375 361.0733032226562 2956.052001953125 360.7024230957031 C 2955.219482421875 360.0676879882812 2955.556396484375 358.7344665527344 2954.308837890625 358.0476989746094 C 2954.154052734375 357.9625549316406 2953.948486328125 358.0093078613281 2953.829345703125 358.139404296875 C 2951.441162109375 360.7379150390625 2949.991943359375 364.6167297363281 2955.365478515625 368.6575317382812 C 2960.174072265625 372.2737121582031 2966.573974609375 370.1880493164062 2968.85595703125 369.2535705566406 C 2968.16064453125 369.8423461914062 2967.76513671875 370.5163879394531 2967.76513671875 371.2329406738281 C 2967.76513671875 372.6836853027344 2969.3876953125 373.9583435058594 2971.84228515625 374.7039184570312 C 2971.89013671875 374.7184448242188 2971.935302734375 374.7426452636719 2971.97314453125 374.7752075195312 C 2972.958984375 375.6266479492188 2974.156005859375 376.309326171875 2975.716796875 376.6082763671875 C 2975.869873046875 376.6378173828125 2976.000732421875 376.7561950683594 2976.041259765625 376.9072875976562 C 2977.171875 381.1326904296875 2977.559326171875 383.92724609375 2978.087158203125 385.2847595214844 C 2978.6669921875 386.7741394042969 2981.24560546875 383.5244140625 2981.78125 382.8243713378906 C 2981.845703125 382.7403869628906 2981.87158203125 382.638671875 2981.856689453125 382.5336608886719 C 2981.75537109375 381.8081970214844 2981.34033203125 378.7797241210938 2981.105224609375 376.4334411621094 C 2981.088134765625 376.2643127441406 2981.1875 376.1149597167969 2981.344482421875 376.0495910644531 C 2982.16357421875 375.7097473144531 2982.914306640625 375.2599182128906 2983.663330078125 374.6941833496094 C 2984.095458984375 374.693603515625 2984.555419921875 374.6634216308594 2985.074462890625 374.5652465820312 C 2990.556884765625 373.5256958007812 2991.066162109375 370.9854125976562 2991.066162109375 370.9854125976562 C 2991.066162109375 370.9854125976562 2996.68212890625 366.8943176269531 2992.8837890625 359.802734375 C 2992.830322265625 359.7030639648438 2992.82470703125 359.5823974609375 2992.86669921875 359.4774475097656 C 2993.2021484375 358.6460876464844 2994.319091796875 354.7778930664062 2987.474365234375 352.0803527832031 C 2987.3798828125 352.0433654785156 2987.26611328125 352.0300598144531 2987.169189453125 352.0605163574219 C 2985.455322265625 352.6005249023438 2984.655517578125 356.1942443847656 2983.601806640625 355.1132507324219 C 2982.260498046875 353.7510986328125 2985.123046875 352.60205078125 2985.338134765625 351.3432922363281 C 2985.338134765625 351.3432922363281 2985.348388671875 351.2818603515625 2985.346435546875 351.2811889648438 C 2985.300537109375 349.6122741699219 2982.314208984375 348.3009338378906 2978.54296875 348.1977233886719 C 2978.081787109375 348.2041931152344 2977.79638671875 348.4159545898438 2978.060791015625 348.9767150878906 C 2978.578369140625 349.6403503417969 2979.336181640625 350.7098388671875 2979.469970703125 351.2803649902344 C 2979.570068359375 351.6979370117188 2979.33203125 352.1524963378906 2978.919921875 352.2983093261719 C 2978.702392578125 352.3752136230469 2978.302734375 352.3397216796875 2978.199951171875 352.3175354003906 C 2977.9052734375 352.2536315917969 2977.65771484375 351.9513549804688 2977.589111328125 351.6580200195312 C 2977.281005859375 350.39013671875 2977.44775390625 349.1337585449219 2975.996826171875 348.2328796386719 L 2975.964111328125 348.2104187011719 C 2974.8828125 347.6934814453125 2973.477783203125 347.4145202636719 2971.94580078125 347.5071411132812 C 2970.508544921875 347.5940856933594 2968.761962890625 348.1353149414062 2968.234375 348.5919494628906 C 2968.2109375 348.6117553710938 2968.19287109375 348.6306762695312 2968.1728515625 348.6531677246094 C 2967.404052734375 349.5007934570312 2967.373046875 350.85888671875 2967.136962890625 351.9023132324219 C 2967.0732421875 352.1926879882812 2966.737548828125 352.4252014160156 2966.4658203125 352.4884338378906 C 2966.37060546875 352.5106811523438 2966.110107421875 352.5234069824219 2965.98828125 352.4938354492188 C 2965.593017578125 352.3968200683594 2965.28369140625 351.8706665039062 2965.376220703125 351.4572448730469 C 2965.562744140625 350.6051330566406 2966.47900390625 349.8042297363281 2966.67431640625 348.9015808105469 L 2966.6845703125 348.9037170410156 C 2965.838134765625 348.6798400878906 2964.868896484375 348.6629028320312 2963.8818359375 348.9187927246094 C 2962.040771484375 349.3958435058594 2960.68310546875 350.6565551757812 2960.306884765625 352.0519714355469 C 2960.227783203125 352.1119995117188 2960.15869140625 352.1705322265625 2960.0859375 352.2300415039062 C 2958.766357421875 352.2255554199219 2957.3056640625 352.9507446289062 2956.2626953125 354.2916870117188 C 2955.68994140625 355.028076171875 2955.349609375 355.931640625 2955.1943359375 356.7280883789062 Z">
						</path>
					</svg>