<svg xmlns="http://www.w3.org/2000/svg" width="15.287" height="21.189" viewBox="0 0 15.287 21.189"><defs>
<style>.a{fill: #602301;}
</style>
</defs>
<g transform="translate(-2433.788 164.869)">
<g transform="translate(-2433.788 164.869)">
<path class="a" d="M2732.7,123.547c-.959.073-3.757.258-6.86.181-3.3-.082-4.748-.457-6.678-.192a2.915,2.915,0,0,0-1.887.962c-.627-.8-2.091-.9-3.107-1.068-3.106-.5-8.994.047-11.486.321-7.135.784-11.824,5.589-11.824,12.233,0,11,10.973,10.588,13.07,10.337.949-.114,1.331-.56,1.331-1.261,0-3.435,3.7-2.506,9.193-4.336a5.892,5.892,0,0,0,3.5-2.745,12.02,12.02,0,0,0,1.188-7.829c-.091-.4.147-1.015.541-1.106s.884.384.976.779a13.243,13.243,0,0,1-.525,7.745,14.192,14.192,0,0,0,8.758-4.671c3.511-4.211,4.254-7.433,4.445-8.749A.555.555,0,0,0,2732.7,123.547Z"/>
</g>
</g>
</svg>