<svg width="1em" height="1em" viewBox="0 0 16 16" class="bi bi-printer" fill="currentColor" xmlns="http://www.w3.org/2000/svg">
  <path
      d="M2986.081,621.991v0c-1.138,8.11-4.7,13.86-12.9,17.7-3.207-1.5-6.324-3.056-8.388-5.167h0a30.45,30.45,0,0,1-3.927,1.374c-.778.216-.874-.1-.124-.436,1.125-.511,2.288-1.052,3.432-1.6a118.294,118.294,0,0,0,19.379-11.435c.895-.671,1.862-1.405,2.713-2.1,0,.018,0,.035-.006.053,0-.018,0-.034.006-.052a24.034,24.034,0,0,0,6.459-7.258c1.125-2.115-1.154-2.155-4.253-1.693-.4.06-.417-.063-.023-.183,2.838-.866,5.011-1.262,5.716.049C2995.436,613.607,2989.888,618.849,2986.081,621.991Zm3.509-7.981a36.718,36.718,0,0,1-3.2,2.585h0a42.6,42.6,0,0,0-.331-4.779c-7.39-5.466-19.894-5.466-27.283,0-.9,7.6-.032,13.7,2.809,18.54a22.208,22.208,0,0,1-6.776,1.477c-2.429-.016-2.009-1.71.2-4.454.381-.474.327-.648-.128-.182-3.06,3.137-4.892,7.041,1.267,6.206a56.075,56.075,0,0,0,6.2-1.8h0l.027-.01.015-.005h0a52.668,52.668,0,0,0,4.894-2.109c3.152-1.534,6.256-3.228,9.264-5.024a70.283,70.283,0,0,0,9.844-6.954v0a38.269,38.269,0,0,0,3.391-3.3C2990.306,613.621,2990.144,613.506,2989.59,614.01Z"
      transform="translate(-2641.385 -427.016)"
    />
</svg>